<svg width="27" height="27" viewBox="0 0 27 27" fill="none" xmlns="http://www.w3.org/2000/svg">
<ellipse cx="12.8769" cy="9.34616" rx="5.4" ry="5.19231" fill="#5E99CF"/>
<ellipse cx="12.8769" cy="18.9" rx="5.4" ry="5.19231" fill="#5E99CF"/>
<path d="M8.30768 8.72308C8.30768 10.329 9.68414 11.6308 8.30768 11.6308C6.93121 11.6308 5.81537 10.329 5.81537 8.72308C5.81537 7.1172 6.93121 5.81538 8.30768 5.81538C9.68414 5.81538 8.30768 7.1172 8.30768 8.72308Z" fill="#2E5B84"/>
<path d="M17.6039 8.72308C17.6039 10.329 16.3145 11.6308 17.6039 11.6308C18.8933 11.6308 19.9385 10.329 19.9385 8.72308C19.9385 7.1172 18.8933 5.81538 17.6039 5.81538C16.3145 5.81538 17.6039 7.1172 17.6039 8.72308Z" fill="#2E5B84"/>
<rect x="7.47687" y="6.64616" width="10.8" height="3.73846" rx="1.86923" fill="#2E5B84"/>
<path d="M11.6308 8.93077C11.6308 9.7337 11.0729 8.93077 10.3846 8.93077C9.69641 8.93077 9.13849 9.7337 9.13849 8.93077C9.13849 8.12783 9.69641 7.47692 10.3846 7.47692C11.0729 7.47692 11.6308 8.12783 11.6308 8.93077Z" fill="white"/>
<path d="M17.2385 8.93077C17.2385 9.7337 16.6805 8.93077 15.9923 8.93077C15.3041 8.93077 14.7462 9.7337 14.7462 8.93077C14.7462 8.12783 15.3041 7.47692 15.9923 7.47692C16.6805 7.47692 17.2385 8.12783 17.2385 8.93077Z" fill="white"/>
<path d="M10.3846 11.9896C10.3846 11.5963 10.7542 11.3078 11.1357 11.4032L12.4699 11.7367C12.7371 11.8035 13.0167 11.8035 13.2839 11.7367L14.6181 11.4032C14.9996 11.3078 15.3692 11.5963 15.3692 11.9896C15.3692 12.267 15.1804 12.5087 14.9113 12.576L13.4814 12.9335C13.0845 13.0327 12.6693 13.0327 12.2724 12.9335L10.8424 12.576C10.5734 12.5087 10.3846 12.267 10.3846 11.9896Z" fill="white"/>
<rect x="11" y="15.7846" width="4.98462" height="2.49231" rx="1.24615" fill="white"/>
<path d="M11.4886 17.6154V17.0112H11.6927C11.7401 17.0112 11.7789 17.0198 11.809 17.0369C11.8392 17.0538 11.8617 17.0767 11.8762 17.1056C11.8908 17.1345 11.8981 17.1668 11.8981 17.2024C11.8981 17.238 11.8908 17.2703 11.8762 17.2994C11.8619 17.3285 11.8396 17.3517 11.8095 17.3691C11.7795 17.3862 11.7409 17.3947 11.6939 17.3947H11.5476V17.3298H11.6915C11.724 17.3298 11.7501 17.3242 11.7697 17.313C11.7894 17.3018 11.8036 17.2866 11.8125 17.2676C11.8215 17.2483 11.8261 17.2266 11.8261 17.2024C11.8261 17.1782 11.8215 17.1565 11.8125 17.1375C11.8036 17.1184 11.7893 17.1034 11.7694 17.0926C11.7496 17.0816 11.7232 17.0761 11.6904 17.0761H11.5617V17.6154H11.4886ZM12.0513 17.7853C12.0395 17.7853 12.029 17.7843 12.0197 17.7824C12.0105 17.7806 12.0041 17.7788 12.0006 17.7771L12.0183 17.7157C12.0352 17.72 12.0501 17.7216 12.0631 17.7204C12.0761 17.7192 12.0876 17.7134 12.0976 17.703C12.1079 17.6928 12.1172 17.6762 12.1257 17.6532L12.1386 17.6178L11.9711 17.1622H12.0466L12.1717 17.5233H12.1764L12.3015 17.1622H12.377L12.1847 17.6815C12.176 17.7049 12.1653 17.7243 12.1525 17.7396C12.1397 17.7551 12.1249 17.7666 12.108 17.7741C12.0912 17.7816 12.0724 17.7853 12.0513 17.7853ZM12.4784 17.6154V17.0112H12.6825C12.7297 17.0112 12.7685 17.0193 12.7987 17.0354C12.829 17.0513 12.8515 17.0733 12.866 17.1012C12.8806 17.1291 12.8878 17.1609 12.8878 17.1965C12.8878 17.2321 12.8806 17.2636 12.866 17.2912C12.8515 17.3187 12.8291 17.3403 12.799 17.3561C12.7689 17.3716 12.7305 17.3794 12.6837 17.3794H12.5185V17.3133H12.6813C12.7136 17.3133 12.7395 17.3086 12.7592 17.2991C12.7791 17.2897 12.7934 17.2763 12.8023 17.259C12.8113 17.2415 12.8159 17.2207 12.8159 17.1965C12.8159 17.1723 12.8113 17.1511 12.8023 17.133C12.7932 17.1149 12.7788 17.101 12.7589 17.0911C12.7391 17.0811 12.7128 17.0761 12.6801 17.0761H12.5515V17.6154H12.4784ZM12.7628 17.344L12.9114 17.6154H12.8265L12.6801 17.344H12.7628ZM13.1795 17.6248C13.1386 17.6248 13.1027 17.6151 13.0719 17.5956C13.0412 17.5762 13.0172 17.5489 12.9999 17.5139C12.9828 17.4789 12.9742 17.438 12.9742 17.3912C12.9742 17.344 12.9828 17.3028 12.9999 17.2676C13.0172 17.2324 13.0412 17.205 13.0719 17.1856C13.1027 17.1661 13.1386 17.1563 13.1795 17.1563C13.2204 17.1563 13.2562 17.1661 13.2869 17.1856C13.3178 17.205 13.3418 17.2324 13.3589 17.2676C13.3762 17.3028 13.3849 17.344 13.3849 17.3912C13.3849 17.438 13.3762 17.4789 13.3589 17.5139C13.3418 17.5489 13.3178 17.5762 13.2869 17.5956C13.2562 17.6151 13.2204 17.6248 13.1795 17.6248ZM13.1795 17.5623C13.2106 17.5623 13.2362 17.5543 13.2562 17.5384C13.2763 17.5225 13.2912 17.5015 13.3008 17.4756C13.3104 17.4496 13.3152 17.4215 13.3152 17.3912C13.3152 17.3609 13.3104 17.3327 13.3008 17.3065C13.2912 17.2804 13.2763 17.2592 13.2562 17.2431C13.2362 17.227 13.2106 17.2189 13.1795 17.2189C13.1485 17.2189 13.1229 17.227 13.1028 17.2431C13.0828 17.2592 13.0679 17.2804 13.0583 17.3065C13.0486 17.3327 13.0438 17.3609 13.0438 17.3912C13.0438 17.4215 13.0486 17.4496 13.0583 17.4756C13.0679 17.5015 13.0828 17.5225 13.1028 17.5384C13.1229 17.5543 13.1485 17.5623 13.1795 17.5623ZM13.5006 17.6154V17.0112H13.5702V17.2342H13.5761C13.5812 17.2264 13.5883 17.2163 13.5974 17.2041C13.6066 17.1917 13.6198 17.1807 13.6369 17.1711C13.6542 17.1613 13.6776 17.1563 13.7071 17.1563C13.7453 17.1563 13.7789 17.1659 13.808 17.185C13.8371 17.204 13.8598 17.2311 13.8761 17.2661C13.8925 17.3011 13.9006 17.3424 13.9006 17.39C13.9006 17.438 13.8925 17.4796 13.8761 17.5148C13.8598 17.5498 13.8372 17.5769 13.8083 17.5962C13.7794 17.6153 13.746 17.6248 13.7083 17.6248C13.6792 17.6248 13.6559 17.62 13.6384 17.6104C13.6209 17.6005 13.6074 17.5894 13.5979 17.577C13.5885 17.5645 13.5812 17.554 13.5761 17.5458H13.5679V17.6154H13.5006ZM13.569 17.3888C13.569 17.423 13.574 17.4532 13.5841 17.4794C13.5941 17.5054 13.6088 17.5257 13.628 17.5405C13.6473 17.555 13.6709 17.5623 13.6988 17.5623C13.7279 17.5623 13.7522 17.5546 13.7717 17.5393C13.7914 17.5237 13.8061 17.5029 13.816 17.4767C13.826 17.4504 13.831 17.4211 13.831 17.3888C13.831 17.357 13.8261 17.3282 13.8163 17.3027C13.8066 17.2769 13.792 17.2566 13.7723 17.2416C13.7528 17.2265 13.7283 17.2189 13.6988 17.2189C13.6705 17.2189 13.6467 17.2261 13.6274 17.2404C13.6082 17.2546 13.5936 17.2745 13.5838 17.3C13.5739 17.3254 13.569 17.355 13.569 17.3888ZM14.1912 17.6248C14.1503 17.6248 14.1144 17.6151 14.0835 17.5956C14.0529 17.5762 14.0289 17.5489 14.0116 17.5139C13.9944 17.4789 13.9859 17.438 13.9859 17.3912C13.9859 17.344 13.9944 17.3028 14.0116 17.2676C14.0289 17.2324 14.0529 17.205 14.0835 17.1856C14.1144 17.1661 14.1503 17.1563 14.1912 17.1563C14.2321 17.1563 14.2679 17.1661 14.2986 17.1856C14.3295 17.205 14.3535 17.2324 14.3706 17.2676C14.3879 17.3028 14.3966 17.344 14.3966 17.3912C14.3966 17.438 14.3879 17.4789 14.3706 17.5139C14.3535 17.5489 14.3295 17.5762 14.2986 17.5956C14.2679 17.6151 14.2321 17.6248 14.1912 17.6248ZM14.1912 17.5623C14.2223 17.5623 14.2479 17.5543 14.2679 17.5384C14.288 17.5225 14.3028 17.5015 14.3125 17.4756C14.3221 17.4496 14.3269 17.4215 14.3269 17.3912C14.3269 17.3609 14.3221 17.3327 14.3125 17.3065C14.3028 17.2804 14.288 17.2592 14.2679 17.2431C14.2479 17.227 14.2223 17.2189 14.1912 17.2189C14.1601 17.2189 14.1346 17.227 14.1145 17.2431C14.0945 17.2592 14.0796 17.2804 14.07 17.3065C14.0603 17.3327 14.0555 17.3609 14.0555 17.3912C14.0555 17.4215 14.0603 17.4496 14.07 17.4756C14.0796 17.5015 14.0945 17.5225 14.1145 17.5384C14.1346 17.5543 14.1601 17.5623 14.1912 17.5623ZM14.6999 17.1622V17.2213H14.4651V17.1622H14.6999ZM14.5335 17.0537H14.6031V17.4856C14.6031 17.5053 14.606 17.52 14.6117 17.5298C14.6176 17.5395 14.6251 17.546 14.6341 17.5493C14.6434 17.5525 14.6531 17.554 14.6633 17.554C14.671 17.554 14.6773 17.5536 14.6822 17.5529C14.6871 17.5519 14.6911 17.5511 14.694 17.5505L14.7082 17.613C14.7034 17.6148 14.6969 17.6166 14.6884 17.6183C14.6799 17.6203 14.6692 17.6213 14.6562 17.6213C14.6366 17.6213 14.6173 17.6171 14.5984 17.6086C14.5797 17.6002 14.5642 17.5873 14.5518 17.57C14.5396 17.5527 14.5335 17.5308 14.5335 17.5045V17.0537ZM15.1175 17.2637L15.055 17.2814C15.051 17.271 15.0452 17.2609 15.0376 17.251C15.0301 17.241 15.0199 17.2328 15.0069 17.2263C14.9939 17.2198 14.9773 17.2165 14.957 17.2165C14.9293 17.2165 14.9062 17.2229 14.8877 17.2357C14.8694 17.2483 14.8603 17.2643 14.8603 17.2838C14.8603 17.3011 14.8665 17.3148 14.8791 17.3248C14.8917 17.3348 14.9114 17.3432 14.9381 17.3499L15.0054 17.3664C15.0459 17.3762 15.0761 17.3913 15.096 17.4115C15.1158 17.4316 15.1258 17.4575 15.1258 17.4891C15.1258 17.5151 15.1183 17.5383 15.1033 17.5588C15.0886 17.5792 15.0679 17.5953 15.0414 17.6071C15.0148 17.6189 14.984 17.6248 14.9488 17.6248C14.9025 17.6248 14.8643 17.6148 14.834 17.5947C14.8037 17.5747 14.7845 17.5454 14.7765 17.5068L14.8425 17.4903C14.8488 17.5147 14.8607 17.533 14.8782 17.5452C14.8959 17.5574 14.9191 17.5635 14.9476 17.5635C14.98 17.5635 15.0058 17.5566 15.0249 17.5428C15.0441 17.5289 15.0538 17.5121 15.0538 17.4927C15.0538 17.4769 15.0483 17.4638 15.0373 17.4531C15.0262 17.4423 15.0093 17.4343 14.9865 17.4289L14.911 17.4112C14.8695 17.4014 14.839 17.3862 14.8195 17.3655C14.8003 17.3447 14.7906 17.3186 14.7906 17.2873C14.7906 17.2618 14.7978 17.2391 14.8122 17.2195C14.8267 17.1998 14.8465 17.1844 14.8715 17.1732C14.8966 17.162 14.9252 17.1563 14.957 17.1563C15.0019 17.1563 15.0371 17.1662 15.0626 17.1858C15.0884 17.2055 15.1067 17.2315 15.1175 17.2637Z" fill="black"/>
<path d="M9.55391 23.1868C9.55391 25.1368 9.3121 27 7.1956 27C5.0791 27 4.98468 25.1368 4.98468 23.1868C4.98468 21.2368 5.0791 19.9385 7.1956 19.9385C9.3121 19.9385 9.55391 21.2368 9.55391 23.1868Z" fill="#5E99CF"/>
<rect x="5.63184" y="21.866" width="3.46057" height="0.564923" rx="0.282462" fill="#D9D9D9"/>
<rect x="5.63184" y="21.0186" width="3.46057" height="0.564923" rx="0.282462" fill="#D9D9D9"/>
<rect x="5.63184" y="22.9959" width="3.46057" height="0.564923" rx="0.282462" fill="#D9D9D9"/>
<rect x="5.63184" y="24.1257" width="3.46057" height="0.564923" rx="0.282462" fill="#D9D9D9"/>
<rect x="5.63184" y="25.538" width="3.46057" height="0.564923" rx="0.282462" fill="#D9D9D9"/>
<path d="M20.7692 23.1868C20.7692 25.1368 20.5274 27 18.4109 27C16.2944 27 16.2 25.1368 16.2 23.1868C16.2 21.2368 16.2944 19.9385 18.4109 19.9385C20.5274 19.9385 20.7692 21.2368 20.7692 23.1868Z" fill="#5E99CF"/>
<rect x="16.8472" y="21.866" width="3.46057" height="0.564923" rx="0.282462" fill="#D9D9D9"/>
<rect x="16.8472" y="21.0186" width="3.46057" height="0.564923" rx="0.282462" fill="#D9D9D9"/>
<rect x="16.8472" y="22.9959" width="3.46057" height="0.564923" rx="0.282462" fill="#D9D9D9"/>
<rect x="16.8472" y="24.1257" width="3.46057" height="0.564923" rx="0.282462" fill="#D9D9D9"/>
<rect x="16.8472" y="25.538" width="3.46057" height="0.564923" rx="0.282462" fill="#D9D9D9"/>
<path d="M0.778896 11.6276C0.405091 10.3022 4.1497 13.3573 0.778896 11.6276C1.7046 14.91 2.56619 13.4149 2.56619 13.4149C5.33582 10.4058 0.676191 9.62735 0.778896 11.6276Z" fill="#2E5B84"/>
<path d="M0.778896 11.6276C0.405091 10.3022 4.1497 13.3573 0.778896 11.6276C1.7046 14.91 2.56619 13.4149 2.56619 13.4149C5.33582 10.4058 0.676191 9.62735 0.778896 11.6276Z" fill="#2E5B84"/>
<path d="M8.9855 16.8913C9.47918 16.3359 9.30559 15.4626 8.63704 15.1383L3.54449 12.6675C3.29777 12.5478 3.00085 12.6192 2.83554 12.838C2.6455 13.0896 2.69373 13.4473 2.94361 13.6395L5.1923 15.3692L7.48497 17.0505C7.95132 17.3925 8.6013 17.3236 8.9855 16.8913Z" fill="#D9D9D9"/>
<path d="M24.3711 10.4652C24.528 9.11312 21.3215 12.6967 24.3711 10.4652C23.9827 13.8137 22.8933 12.4964 22.8933 12.4964C19.679 10.0128 24.1525 8.49946 24.3711 10.4652Z" fill="#2E5B84"/>
<path d="M24.3711 10.4652C24.528 9.11312 21.3215 12.6967 24.3711 10.4652C23.9827 13.8137 22.8933 12.4964 22.8933 12.4964C19.679 10.0128 24.1525 8.49946 24.3711 10.4652Z" fill="#2E5B84"/>
<path d="M17.1149 16.9237C16.5389 16.4625 16.5703 15.5836 17.178 15.1594L21.8085 11.9265C22.0328 11.7699 22.3372 11.7915 22.5354 11.9779C22.7631 12.1922 22.7728 12.5485 22.557 12.7762L20.6146 14.8262L18.621 16.836C18.2156 17.2447 17.5632 17.2827 17.1149 16.9237Z" fill="#D9D9D9"/>
<path d="M13.7642 2.55967C13.0618 2.55967 13.9883 4.98462 13.0618 4.98462C12.1353 4.98462 13.0618 2.55967 12.3512 2.55967C11.6406 2.55967 10.9039 0 13.0618 0C15.2197 0 14.6069 2.55967 13.7642 2.55967Z" fill="#2E5B84"/>
</svg>
