<svg width="214" height="204" viewBox="0 0 214 204" fill="none" xmlns="http://www.w3.org/2000/svg">
<path d="M44.5006 147.014L78.7959 108.554L79.2099 108.09L78.9558 107.516L53.6572 50.405L102.754 90.221L103.458 90.7922L104.1 90.1744L145.277 50.5457L128.84 101.426L128.598 102.175L129.293 102.583L173.876 128.764L125.008 128.764L124.169 128.764L124.031 129.574L116.792 172.032L96.5508 134.342L96.1703 133.633L95.3891 133.835L44.5006 147.014Z" fill="#FF450B" stroke="#D9D9D9" stroke-width="1.99536"/>
<path d="M72.6023 164.407L82.7357 119.048L82.9689 118.004L81.9289 117.677L31.3594 101.783L91.9729 92.4443L93.0019 92.2857L93.0019 91.2704L93.0019 27.6438L119.791 91.4256L120.327 92.7016L121.54 91.981L176.15 59.5226L134.504 118.132L134.126 118.664L134.379 119.26L149.873 155.667L110.852 129.273L110.031 128.717L109.313 129.402L72.6023 164.407Z" fill="#FF450B" stroke="#D9D9D9" stroke-width="2.39443"/>
<ellipse rx="23.2863" ry="19.8404" transform="matrix(0.992606 -0.121385 0.126664 0.991946 110.914 86.9601)" fill="#FFBB0B"/>
<ellipse rx="23.2863" ry="19.8404" transform="matrix(0.992606 -0.121385 0.126664 0.991946 134.628 98.5129)" fill="#FFBB0B"/>
<ellipse rx="23.2863" ry="19.8404" transform="matrix(0.992606 -0.121385 0.126664 0.991946 123.586 119.851)" fill="#FFBB0B"/>
<ellipse rx="23.2863" ry="19.8404" transform="matrix(0.992606 -0.121385 0.126664 0.991946 92.0332 118.79)" fill="#FFBB0B"/>
<ellipse rx="23.2863" ry="19.8404" transform="matrix(0.992606 -0.121385 0.126664 0.991946 109.951 107.066)" fill="#FFBB0B"/>
<ellipse rx="23.2863" ry="19.8404" transform="matrix(0.992606 -0.121385 0.126664 0.991946 75.5408 111.274)" fill="#FFBB0B"/>
<ellipse rx="23.2863" ry="19.8404" transform="matrix(0.992606 -0.121385 0.126664 0.991946 83.5946 95.9784)" fill="#FFBB0B"/>
</svg>
